{"title":"Ittefaq 2017 720p Esub HD Hindi GOPISAHI","magnet":"magnet:?xt=urn:btih:4c442f03e9ce2b54cefe792b02c2b606d5e7d63c&dn=Ittefaq+2017+720p+Esub+HD+Hindi+GOPISAHI&tr=udp%3A%2F%2Ftracker.leechers-paradise.org%3A6969&tr=udp%3A%2F%2Fzer0day.ch%3A1337&tr=udp%3A%2F%2Fopen.demonii.com%3A1337&tr=udp%3A%2F%2Ftracker.coppersurfer.tk%3A6969&tr=udp%3A%2F%2Fexodus.desync.com%3A6969","uploader":"jatt13","categoryP":"video","categoryS":"movies","size":"543889087","seeders":"1","leechers":"134","description":"[center][quote][u]GOPI SAHI GOPISAHI[/u][/quote]\r\n\r\nbest Small Size 720p one by one all rip you can wait \r\n\r\n[img]https://lookimg.com/images/2017/12/16/ktwXU.jpg[/img]\r\n\r\nFormat version                 : Version 4 / Version 2\r\nFile size                      : 519 MiB\r\nDuration                       : 1 h 45 min\r\nOverall bit rate               : 687 kb/s\r\nMovie name                     : Ittefaq 2017 GOPISAHI\r\n\r\nVideo\r\nFormat                         : AVC\r\nCodec ID                       : V_MPEG4/ISO/AVC\r\nDuration                       : 1 h 45 min\r\nBit rate                       : 600 kb/s\r\nWidth                          : 1 280 pixels\r\nHeight                         : 536 pixels\r\nDisplay aspect ratio           : 2.40:1\r\nFrame rate mode                : Constant\r\nFrame rate                     : 30.000 FPS\r\nStream size                    : 453 MiB (87%)\r\nTitle                          : GOPISAHI\r\nWriting library                : x264 core 152 r2851 ba24899\r\n\r\nAudio\r\nFormat                         : AAC\r\nDuration                       : 1 h 45 min\r\nBit rate                       : 84.8 kb/s\r\nChannel(s)                     : 6 channels\r\nChannel positions              : Front: L C R, Side: L R, LFE\r\nSampling rate                  : 44.1 kHz\r\nFrame rate                     : 43.066 FPS (1024 SPF)\r\nStream size                    : 64.0 MiB (12%)\r\nTitle                          : GOPISAHI\r\nLanguage                       : Hindi\r\n\r\nText\r\nLanguage                       : English\r\n[img]https://lookimg.com/images/2017/12/16/ktDFn.jpg[/img]\r\n[img]https://lookimg.com/images/2017/12/16/ktjKq.jpg[/img]\r\n[img]https://lookimg.com/images/2017/12/16/ktlLQ.jpg[/img][/center]","last_updated":"2017-12-16T12:02:25.447Z","parsed":{"xt":"urn:btih:4c442f03e9ce2b54cefe792b02c2b606d5e7d63c","dn":"Ittefaq 2017 720p Esub HD Hindi GOPISAHI","tr":["udp://exodus.desync.com:6969","udp://open.demonii.com:1337","udp://tracker.coppersurfer.tk:6969","udp://tracker.leechers-paradise.org:6969","udp://zer0day.ch:1337"],"infoHash":"4c442f03e9ce2b54cefe792b02c2b606d5e7d63c","infoHashBuffer":{"type":"Buffer","data":[76,68,47,3,233,206,43,84,206,254,121,43,2,194,182,6,213,231,214,60]},"name":"Ittefaq 2017 720p Esub HD Hindi GOPISAHI","announce":["udp://exodus.desync.com:6969","udp://open.demonii.com:1337","udp://tracker.coppersurfer.tk:6969","udp://tracker.leechers-paradise.org:6969","udp://zer0day.ch:1337"],"urlList":[]}}